<svg width="43" height="49" viewBox="0 0 43 49" fill="none" xmlns="http://www.w3.org/2000/svg">
<g clip-path="url(#clip0_132_83)">
<path fill-rule="evenodd" clip-rule="evenodd" d="M16.2957 3.27402C13.4394 4.76192 11.1026 6.02099 11.1031 6.07219C11.1043 6.20437 17.9583 9.67545 18.2015 9.66699C18.3122 9.66329 19.115 9.29376 19.9854 8.84592L21.5682 8.03182L23.2968 8.92036L25.0253 9.80906L27.8561 8.53706C32.1216 6.62035 32.5646 6.41031 32.4951 6.33975C32.403 6.24612 30.8731 5.42422 26.7222 3.23896C24.7162 2.1828 22.7692 1.14727 22.3954 0.937735C22.0217 0.728195 21.6649 0.559635 21.6026 0.562898C21.5402 0.56616 19.1521 1.78618 16.2957 3.27402ZM3.76804 9.76128L0.794671 11.2971V18.0377C0.794671 21.745 0.833714 24.7782 0.881606 24.7782C0.929331 24.7782 2.39224 24.144 4.13242 23.369L7.29642 21.9597V14.8548L8.84255 15.6971C10.034 16.3456 11.2261 16.9928 12.419 17.6387L14.4492 18.738L15.3527 18.3294C15.9192 18.0728 16.4847 17.8137 17.049 17.5521C17.485 17.3491 18.5555 16.8669 19.4276 16.4805C20.2998 16.094 21.1072 15.7053 21.2216 15.6167C21.3737 15.499 19.5193 14.4742 14.3628 11.8263C10.4759 9.83024 7.17099 8.20348 7.01858 8.21128C6.86617 8.21907 5.40343 8.91649 3.76804 9.76128ZM33.031 10.1926C31.0059 11.1068 29.3477 11.8913 29.3458 11.936C29.344 11.9807 30.4477 12.637 31.7986 13.3942C33.1494 14.1515 34.2547 14.8117 34.2547 14.8614C34.2547 14.911 33.0594 15.4902 31.5986 16.1487C30.1375 16.8071 26.4447 18.4748 23.3921 19.8547L13.1638 24.4781C10.5909 25.6412 8.27167 26.6896 8.01004 26.8081C2.75469 29.1871 1.3102 29.8473 1.11183 29.9606C0.912354 30.0747 0.867172 30.7374 0.831668 34.064L0.789307 38.0316L3.44823 39.3864L6.10709 40.7411L9.79402 39.0772C11.8219 38.1621 13.481 37.3654 13.481 37.3068C13.481 37.2483 13.1062 37.0041 12.6484 36.764C12.1904 36.5239 11.245 35.9923 10.5472 35.5825C9.84955 35.1727 9.15385 34.7967 9.0011 34.7468C8.84842 34.6971 8.7257 34.6101 8.72819 34.5533C8.73073 34.4968 10.3543 33.7256 12.3359 32.8395C16.1847 31.1186 19.1302 29.7923 25.4536 26.9327C28.2812 25.6543 31.1092 24.3766 33.9376 23.0997C36.4233 21.9778 39.3134 20.6674 40.36 20.1878L42.2629 19.3159L42.3053 15.3031L42.3478 11.2905L39.651 9.90628C38.1677 9.14505 36.8998 8.52407 36.8333 8.52633C36.7669 8.52843 35.0559 9.27816 33.031 10.1926ZM41.5404 24.6691C41.143 24.8632 40.3581 25.2267 39.7961 25.4767C39.2341 25.7267 38.1677 26.2079 37.4263 26.5462L36.0784 27.161L36.0476 30.6838C36.0306 32.6213 35.9593 34.198 35.8891 34.1877C35.7295 34.164 33.2032 32.8684 30.6637 31.5076C28.8309 30.5256 28.7157 30.4866 28.285 30.6999C28.0361 30.8233 26.5478 31.4907 24.9779 32.1834C23.4079 32.8759 22.0723 33.4878 22.0095 33.5432C21.9468 33.5985 25.1065 35.311 29.0312 37.349L36.1667 41.0544L39.2149 39.4776C40.8912 38.6105 42.3167 37.8195 42.3823 37.72C42.5301 37.4963 42.5174 24.2855 42.3695 24.3033C42.311 24.3104 41.9378 24.475 41.5404 24.6691ZM24.6608 40.1753C24.132 40.4026 23.6034 40.6302 23.075 40.8582C21.4792 41.5486 21.7919 41.5715 19.8934 40.6264C18.6289 39.9969 18.0839 39.8027 17.8473 39.897C17.6698 39.9677 16.1425 40.6548 14.4531 41.4239C12.7637 42.193 11.3228 42.8222 11.2512 42.8222C10.5424 42.8222 11.7207 43.5263 16.2678 45.82L21.6005 48.5097L23.8442 47.402C25.0783 46.7927 27.5673 45.5727 29.3756 44.6909C31.1837 43.8088 32.6407 43.0643 32.6135 43.0362C32.586 43.0082 31.0709 42.2302 29.2465 41.3073L25.9294 39.6296L24.6608 40.1753Z" fill="#05A3C9"/>
</g>
<defs>
<clipPath id="clip0_132_83">
<rect width="41.7408" height="48" fill="white" transform="translate(0.789307 0.534668)"/>
</clipPath>
</defs>
</svg>
