<svg width="49" height="49" viewBox="0 0 49 49" fill="none" xmlns="http://www.w3.org/2000/svg">
<g clip-path="url(#clip0_132_77)">
<path d="M10.7848 23.3616C10.7848 22.2537 11.6949 21.3436 12.8008 21.3436H16.2011C17.3089 21.3436 18.2574 22.2537 18.2574 23.4019V36.2256C18.6529 36.1065 19.1272 35.9875 19.6821 35.8684C20.4328 35.6707 20.9877 34.9987 20.9877 34.2057V18.2947C20.9877 17.1868 21.8977 16.2364 23.044 16.2364H26.4443C27.5521 16.2364 28.5006 17.1465 28.5006 18.2947V33.0595C28.5006 33.0595 29.332 32.7024 30.1614 32.3472C30.795 32.0707 31.1905 31.4774 31.1905 30.7632V13.151C31.1905 12.0432 32.1006 11.0928 33.2085 11.0928H36.6088C37.7166 11.0928 38.6267 12.0028 38.6267 13.151V27.6777C41.5528 25.5408 44.5595 22.968 46.9326 19.8806C47.6449 18.9705 47.8427 17.782 47.4472 16.6742C43.0965 4.16731 29.4145 -2.48357 16.9173 1.87099C4.41997 6.22555 -2.22323 19.919 2.12557 32.4278C2.59981 33.8524 3.23341 35.1984 3.98413 36.504C4.57741 37.5331 5.68525 38.1264 6.87181 38.0073C7.50541 37.967 8.29645 37.8883 9.28333 37.7692C10.1531 37.6905 10.7867 36.9379 10.7867 36.0662L10.7848 23.3616Z" fill="#21325B"/>
<path d="M10.7041 43.9439C21.4215 51.7411 36.411 49.366 44.2004 38.6409C47.1668 34.5244 48.7873 29.5766 48.7873 24.5116C48.7873 23.9567 48.747 23.4038 48.7086 22.8489C39.9707 35.9491 23.7947 42.0835 10.7041 43.9439Z" fill="#979695"/>
</g>
<defs>
<clipPath id="clip0_132_77">
<rect width="48" height="48" fill="white" transform="translate(0.789307 0.534668)"/>
</clipPath>
</defs>
</svg>
