<svg width="49" height="49" viewBox="0 0 49 49" fill="none" xmlns="http://www.w3.org/2000/svg">
<g clip-path="url(#clip0_132_75)">
<path d="M24.7893 0.534668C11.5353 0.534668 0.789307 11.2807 0.789307 24.5347C0.789307 37.7887 11.5353 48.5347 24.7893 48.5347C38.0433 48.5347 48.7893 37.7887 48.7893 24.5347C48.7893 11.2807 38.0433 0.534668 24.7893 0.534668ZM36.5773 16.9767L32.6373 35.5367C32.3473 36.8527 31.5633 37.1727 30.4693 36.5527L24.4693 32.1327L21.5773 34.9207C21.4356 35.1041 21.2538 35.2526 21.0458 35.3549C20.8378 35.4572 20.6091 35.5105 20.3773 35.5107H20.3673L20.7933 29.4027L31.9133 19.3587C32.3933 18.9327 31.8053 18.6907 31.1673 19.1167L17.4293 27.7687L11.5093 25.9207C10.2293 25.5147 10.1933 24.6407 11.7793 24.0127L34.9113 15.0967C35.9873 14.7047 36.9233 15.3527 36.5753 16.9787L36.5773 16.9767Z" fill="white"/>
</g>
<defs>
<clipPath id="clip0_132_75">
<rect width="48" height="48" fill="white" transform="translate(0.789307 0.534668)"/>
</clipPath>
</defs>
</svg>
